<svg
  version="1.0"
  xmlns="http://www.w3.org/2000/svg"
  width="500.000000pt"
  height="500.000000pt"
  viewBox="0 0 500.000000 500.000000"
  preserveAspectRatio="xMidYMid meet"
>
  <g
    transform="translate(0.000000,500.000000) scale(0.100000,-0.100000)"
    stroke="none"
  >
    <path
      d="M1565 3703 c-70 -15 -165 -47 -165 -56 0 -5 12 -6 28 -3 15 4 69 10
120 13 89 5 95 4 156 -26 71 -35 151 -113 143 -139 -14 -51 -522 -1253 -542
-1283 -25 -39 -111 -89 -152 -89 -13 0 -23 -4 -23 -10 0 -6 77 -10 210 -10
195 0 258 9 175 24 -41 8 -65 38 -65 82 0 18 25 97 56 176 31 79 65 167 76
196 l19 52 292 0 292 0 58 -173 c32 -94 81 -221 110 -282 l51 -110 3 -165 c3
-152 2 -168 -17 -198 -21 -35 -72 -62 -115 -62 -14 0 -25 -5 -25 -11 0 -7 132
-9 438 -7 409 4 442 5 513 25 276 77 466 283 514 558 72 416 -135 761 -521
865 -117 32 -561 49 -793 31 -91 -7 -179 -14 -195 -15 -28 -1 -30 3 -76 125
-25 70 -62 160 -82 200 -70 146 -176 250 -291 284 -47 14 -146 18 -192 8z
m369 -355 c13 -29 44 -112 69 -183 l45 -131 -51 -46 c-50 -43 -108 -127 -122
-175 -11 -40 18 -26 48 22 27 41 122 135 139 135 3 0 25 -57 49 -127 23 -71
44 -133 46 -138 2 -7 -83 -11 -262 -11 -146 0 -265 2 -265 5 0 4 27 76 60 161
172 440 212 540 216 540 3 0 16 -24 28 -52z m476 -615 l-1 -308 -104 295 c-57
162 -103 296 -101 297 3 4 135 20 174 22 l32 1 0 -307z m688 291 c287 -59 470
-314 472 -657 1 -333 -160 -581 -429 -661 -158 -47 -318 22 -454 194 -35 43
-80 107 -100 142 l-37 63 0 467 0 468 235 0 c176 0 256 -4 313 -16z m-383
-1310 c25 -14 45 -28 45 -30 0 -2 -47 -4 -105 -4 l-105 0 0 86 0 86 60 -56
c33 -30 81 -67 105 -82z"
    />
    <path
      d="M1452 1454 c-24 -17 -29 -53 -10 -72 7 -7 27 -12 45 -12 29 0 33 3
33 25 0 19 -5 25 -21 25 -15 0 -19 -5 -15 -15 3 -9 0 -15 -10 -15 -8 0 -17 7
-20 15 -9 22 15 47 37 40 23 -8 26 10 3 19 -20 8 -16 9 -42 -10z"
    />
    <path
      d="M3348 1463 c-22 -5 -35 -50 -21 -72 13 -20 50 -26 69 -11 21 18 18
67 -5 80 -11 5 -21 9 -23 9 -2 -1 -11 -3 -20 -6z m40 -47 c-2 -13 -10 -21 -23
-21 -23 0 -33 34 -14 45 20 13 40 -1 37 -24z"
    />
    <path
      d="M1042 1418 c-12 -27 -15 -45 -8 -47 5 -2 12 1 14 8 5 14 39 15 47 1
3 -5 10 -10 15 -10 5 0 2 20 -8 45 -9 25 -22 45 -29 45 -7 0 -21 -19 -31 -42z
m38 2 c0 -5 -5 -10 -11 -10 -5 0 -7 5 -4 10 3 6 8 10 11 10 2 0 4 -4 4 -10z"
    />
    <path
      d="M1230 1415 c0 -25 5 -45 10 -45 6 0 10 12 10 28 l1 27 20 -27 c29
-39 39 -35 39 17 0 25 -4 45 -10 45 -5 0 -10 -12 -10 -27 l-1 -28 -17 28 c-25
41 -42 34 -42 -18z"
    />
    <path
      d="M1630 1415 c0 -45 0 -45 35 -45 19 0 35 5 35 10 0 6 -9 10 -20 10
-27 0 -25 18 3 23 l22 4 -22 8 c-13 4 -23 11 -23 15 0 5 10 11 23 13 13 3 8 5
-15 6 l-38 1 0 -45z"
    />
    <path
      d="M1810 1415 c0 -45 0 -45 35 -45 19 0 35 5 35 10 0 6 -9 10 -20 10
-16 0 -20 7 -20 35 0 24 -5 35 -15 35 -11 0 -15 -12 -15 -45z"
    />
    <path
      d="M2120 1415 c0 -43 1 -45 29 -45 33 0 61 22 61 49 0 26 -21 41 -57 41
-32 0 -33 -1 -33 -45z m70 10 c0 -17 -16 -35 -31 -35 -13 0 -19 7 -19 23 0 13
3 27 6 30 6 6 44 -9 44 -18z"
    />
    <path
      d="M2320 1415 c0 -45 0 -45 35 -45 19 0 35 5 35 10 0 6 -9 10 -20 10
-27 0 -25 18 3 23 l22 4 -22 8 c-13 4 -23 11 -23 15 0 5 10 11 23 13 13 3 8 5
-15 6 l-38 1 0 -45z"
    />
    <path
      d="M2640 1415 c0 -43 1 -45 30 -45 17 0 30 5 30 10 0 6 -9 10 -20 10
-16 0 -20 7 -20 35 0 19 -4 35 -10 35 -5 0 -10 -20 -10 -45z"
    />
    <path
      d="M2820 1419 c-19 -45 -19 -62 2 -41 15 15 48 16 48 2 0 -5 7 -10 15
-10 12 0 11 7 -4 42 -9 23 -23 44 -29 46 -7 2 -21 -16 -32 -39z m35 1 c3 -5 1
-10 -4 -10 -6 0 -11 5 -11 10 0 6 2 10 4 10 3 0 8 -4 11 -10z"
    />
    <path
      d="M3143 1453 c12 -3 17 -15 17 -44 0 -21 5 -39 10 -39 6 0 10 16 10 35
0 22 6 38 18 44 13 8 7 10 -28 10 -25 -1 -37 -3 -27 -6z"
    />
    <path
      d="M3530 1415 c0 -25 5 -45 10 -45 6 0 10 8 10 18 1 16 1 16 14 0 14
-19 46 -24 46 -8 0 6 -7 10 -16 10 -11 0 -14 5 -9 18 15 38 8 52 -25 52 -29 0
-30 -2 -30 -45z m40 20 c0 -8 -4 -15 -10 -15 -5 0 -10 7 -10 15 0 8 5 15 10
15 6 0 10 -7 10 -15z"
    />
    <path
      d="M3720 1415 c0 -25 5 -45 10 -45 6 0 10 8 10 18 1 16 1 16 14 0 14
-19 46 -24 46 -8 0 6 -7 10 -16 10 -11 0 -14 5 -9 18 15 38 8 52 -25 52 -29 0
-30 -2 -30 -45z m40 20 c0 -8 -4 -15 -10 -15 -5 0 -10 7 -10 15 0 8 5 15 10
15 6 0 10 -7 10 -15z"
    />
    <path
      d="M3910 1415 c0 -43 1 -45 30 -45 17 0 30 5 30 10 0 6 -9 10 -20 10
-11 0 -20 5 -20 10 0 6 9 10 20 10 11 0 20 5 20 10 0 6 -9 10 -20 10 -27 0
-25 18 3 23 16 3 13 5 -10 6 -33 1 -33 0 -33 -44z"
    />
  </g>
</svg>
