<svg
  version="1.0"
  xmlns="http://www.w3.org/2000/svg"
  width="500.000000pt"
  height="500.000000pt"
  viewBox="0 0 500.000000 500.000000"
  preserveAspectRatio="xMidYMid meet"
>
  <g
    transform="translate(0.000000,500.000000) scale(0.100000,-0.100000)"
    stroke="none"
  >
    <path
      d="M1565 3703 c-70 -15 -165 -47 -165 -56 0 -5 12 -6 28 -3 15 4 69 10
120 13 89 5 95 4 156 -26 71 -35 151 -113 143 -139 -14 -51 -522 -1253 -542
-1283 -25 -39 -111 -89 -152 -89 -13 0 -23 -4 -23 -10 0 -6 77 -10 210 -10
195 0 258 9 175 24 -41 8 -65 38 -65 82 0 18 25 97 56 176 31 79 65 167 76
196 l19 52 292 0 292 0 58 -173 c32 -94 81 -221 110 -282 l51 -110 3 -165 c3
-152 2 -168 -17 -198 -21 -35 -72 -62 -115 -62 -14 0 -25 -5 -25 -11 0 -7 132
-9 438 -7 409 4 442 5 513 25 276 77 466 283 514 558 72 416 -135 761 -521
865 -117 32 -561 49 -793 31 -91 -7 -179 -14 -195 -15 -28 -1 -30 3 -76 125
-25 70 -62 160 -82 200 -70 146 -176 250 -291 284 -47 14 -146 18 -192 8z
m369 -355 c13 -29 44 -112 69 -183 l45 -131 -51 -46 c-50 -43 -108 -127 -122
-175 -11 -40 18 -26 48 22 27 43 121 135 137 135 6 0 100 -258 100 -274 0 -2
-119 -4 -265 -4 -146 1 -265 3 -265 7 0 3 27 76 60 161 172 440 212 540 216
540 3 0 16 -24 28 -52z m476 -615 l-1 -308 -104 295 c-57 162 -103 296 -101
297 3 4 135 20 174 22 l32 1 0 -307z m688 291 c290 -59 470 -313 472 -666 1
-324 -163 -573 -429 -652 -158 -47 -318 22 -454 194 -35 43 -80 107 -100 142
l-37 63 0 467 0 468 235 0 c176 0 256 -4 313 -16z m-383 -1310 c25 -14 45 -28
45 -30 0 -2 -47 -4 -105 -4 l-105 0 0 86 0 86 60 -56 c33 -30 81 -67 105 -82z"
    />
  </g>
</svg>
